<?xml version="1.0" encoding="utf-8"?><!-- Uploaded to: SVG Repo, www.svgrepo.com, Generator: SVG Repo Mixer Tools -->
<svg version="1.1" id="Uploaded to svgrepo.com" xmlns="http://www.w3.org/2000/svg" xmlns:xlink="http://www.w3.org/1999/xlink" 
	 width="800px" height="800px" viewBox="0 0 32 32" xml:space="preserve">
<style type="text/css">
	.feather_een{fill:#0B1719;}
</style>
<path class="feather_een" d="M16,8c-1.657,0-3,1.343-3,3s1.343,3,3,3s3-1.343,3-3S17.657,8,16,8z M16,13c-1.103,0-2-0.897-2-2
	c0-1.103,0.897-2,2-2s2,0.897,2,2C18,12.103,17.103,13,16,13z M23.368,17.245C23.736,15.625,24,13.834,24,12
	c0-5.916-4.684-9.805-6.884-11.304c-0.675-0.461-1.557-0.461-2.232,0C12.684,2.195,8,6.084,8,12c0,2.019,0.207,3.795,0.509,5.327
	l-2.064,1.376C6.167,18.889,6,19.201,6,19.535v4.077c0,0.57,0.467,1.001,0.998,1.001c0.104,0,0.211-0.017,0.318-0.052l3.346-1.115
	C10.867,23.806,11,24,11,24l-0.561,1.684C10.223,26.331,10.705,27,11.387,27h0.595c-0.085,0.321-0.146,0.652-0.146,1
	c0,1.223,0.307,2.318,0.58,3.052c0.201,0.54,0.811,0.806,1.337,0.573c0.275-0.122,0.592-0.27,0.927-0.441
	c0.384,0.246,0.741,0.445,1.007,0.585c0.293,0.154,0.637,0.157,0.93,0.004c0.124-0.065,0.267-0.142,0.424-0.231
	c0.282-0.16,0.628-0.177,0.922-0.041c0.097,0.045,0.19,0.087,0.279,0.126c0.529,0.234,1.136-0.031,1.338-0.573
	c0.274-0.734,0.58-1.829,0.58-3.052c0-0.348-0.061-0.679-0.146-1h0.595c0.683,0,1.165-0.669,0.949-1.316L21,24
	c0,0,0.105-0.203,0.277-0.574l3.407,1.136c0.106,0.035,0.213,0.052,0.318,0.052c0.531,0,0.998-0.43,0.998-1.001v-4.077
	c0-0.334-0.167-0.647-0.445-0.832L23.368,17.245z M7,23.613v-4.077l1.739-1.159c0.443,1.827,1.003,3.225,1.458,4.171L7,23.613z
	 M18.643,30.707c-0.212-0.094-0.452-0.205-0.704-0.33l0,0c-0.311-0.155-0.679-0.137-0.974,0.046l0,0
	c-0.308,0.191-0.591,0.348-0.807,0.461c-0.246-0.129-0.579-0.314-0.937-0.543l0,0c-0.3-0.192-0.679-0.21-0.996-0.048h0
	c-0.312,0.16-0.61,0.299-0.868,0.413c-0.242-0.65-0.521-1.631-0.521-2.706c0-0.353,0.071-0.687,0.187-1H14
	c0,0.645,0.682,1.56,1.25,2.21c0.396,0.453,1.104,0.453,1.5,0C17.318,28.56,18,27.645,18,27h0.976c0.116,0.313,0.187,0.647,0.187,1
	C19.163,29.079,18.885,30.058,18.643,30.707z M15,27h2c-0.015,0.263-0.444,0.909-1.001,1.552C15.442,27.909,15.013,27.261,15,27z
	 M11.387,26l0.665-2h7.893l0.667,2H11.387z M20.37,23h-8.81C10.863,21.777,9,17.95,9,12c0-5.417,4.398-9.067,6.446-10.472
	c0.335-0.23,0.776-0.231,1.112-0.001C18.606,2.927,23,6.566,23,12C23,16.833,21.077,21.463,20.37,23z M25,23.613l-3.32-1.107
	c0.425-1.017,0.976-2.492,1.435-4.227L25,19.535V23.613z M16,6c-2.757,0-5,2.243-5,5s2.243,5,5,5s5-2.243,5-5S18.757,6,16,6z M16,15
	c-2.209,0-4-1.791-4-4c0-2.209,1.791-4,4-4c2.209,0,4,1.791,4,4C20,13.209,18.209,15,16,15z"/>
</svg>